<svg id="visual" viewBox="0 0 540 960" width="540" height="960" xmlns="http://www.w3.org/2000/svg" xmlns:xlink="http://www.w3.org/1999/xlink" version="1.1"><rect x="0" y="0" width="540" height="960" fill="#ebebeb"></rect><defs><linearGradient id="grad1_0" x1="0%" y1="0%" x2="100%" y2="100%"><stop offset="30%" stop-color="#ebebeb" stop-opacity="1"></stop><stop offset="70%" stop-color="#ebebeb" stop-opacity="1"></stop></linearGradient></defs><defs><linearGradient id="grad2_0" x1="0%" y1="0%" x2="100%" y2="100%"><stop offset="30%" stop-color="#ebebeb" stop-opacity="1"></stop><stop offset="70%" stop-color="#ebebeb" stop-opacity="1"></stop></linearGradient></defs><g transform="translate(540, 0)"><path d="M0 378C-51.4 373.4 -102.9 368.7 -143.5 346.5C-184.1 324.2 -213.9 284.3 -249.6 249.6C-285.3 214.9 -326.8 185.4 -349.2 144.7C-371.6 103.9 -374.8 52 -378 0L0 0Z" fill="#dedede"></path></g><g transform="translate(0, 960)"><path d="M0 -378C58.8 -381.3 117.6 -384.6 144.3 -348.3C170.9 -312 165.3 -236 200.8 -200.8C236.3 -165.7 312.9 -171.3 349.2 -144.7C385.6 -118 381.8 -59 378 0L0 0Z" fill="#dedede"></path></g></svg>