<svg id="ejJy9u1gXHD1" xmlns="http://www.w3.org/2000/svg" xmlns:xlink="http://www.w3.org/1999/xlink" viewBox="0 0 600 1000" shape-rendering="geometricPrecision" text-rendering="geometricPrecision"><rect width="600" height="1000" rx="0" ry="0" fill="#f5f5f5" stroke-width="0"/><path d="M-2.981199,404.853045c18.738744-58.772655,11.654757-40.926771,27.035522-84.020068c26.937062-75.471335,52.450314-98.344168,83.520959-150.369434c48.811639-81.731118,60.842179-137.033742,64.918512-171.003189" fill="none" stroke="#2b2b2b" stroke-width="6"/><path d="M-193.593927,414.562049c17.60878-92.609144,162.516442-114.864617,205.154349-131.466088c134.863733-52.510465,122.11464-196.674657,122.11464-257.271797c0-185.421115,23.632026-170.879564,26.182461-170.879564" transform="translate(442.692912 586.394276)" fill="none" stroke="#2b2b2b" stroke-width="6"/><path d="M-40.089871,904.838003c65.859648-81.934631,8.047831-292.339626,64.970845-408.902682C90.001606,362.585744,60.183285,256.56246,61.193846,195.973747c2.508016-150.369434,88.352203-235.885494,111.984229-265.69959" transform="translate(429.37236 98.314232)" fill="none" stroke="#2b2b2b" stroke-width="6"/><path d="M79.954155,1015.087495c-3.524572-53.454956,11.379057-87.65842,107.421929-183.701292c61.801368-61.801368,259.315755-84.037512,288.128617-153.668595c52.823579-103.246087-91.024356-297.851811-54.482135-376.847407c36.41075-78.711388,69.609344-107.623416,175.256503-83.612698" transform="translate(4.802144-14.406431)" fill="none" stroke="#2b2b2b" stroke-width="6"/></svg>
